<?xml version="1.0" standalone="no"?>
<!DOCTYPE svg PUBLIC "-//W3C//DTD SVG 20010904//EN"
 "http://www.w3.org/TR/2001/REC-SVG-20010904/DTD/svg10.dtd">
<svg version="1.0" xmlns="http://www.w3.org/2000/svg"
 width="237.000000pt" height="237.000000pt" viewBox="0 0 237.000000 237.000000"
 preserveAspectRatio="xMidYMid meet">
<metadata>
Created by potrace 1.11, written by Peter Selinger 2001-2013
</metadata>
<g transform="translate(0.000000,237.000000) scale(0.100000,-0.100000)"
fill="#000000" stroke="none">
<path d="M1835 2114 c-38 -9 -104 -29 -145 -45 -85 -33 -91 -34 -85 -16 15 40
-42 52 -145 31 -187 -38 -384 -131 -577 -270 -22 -16 -23 -15 -23 5 0 32 -51
27 -117 -10 -63 -36 -221 -188 -285 -274 -186 -250 -241 -477 -172 -715 l16
-55 30 35 c225 256 540 567 734 722 230 186 549 358 709 383 40 7 40 7 -20
-25 -472 -253 -921 -649 -1361 -1202 -32 -40 -66 -82 -76 -93 -39 -46 -248
-320 -248 -326 0 -3 189 -6 420 -6 384 -1 420 1 420 16 0 15 -32 16 -370 16
-203 0 -370 3 -370 6 0 4 7 13 16 20 9 7 50 54 92 104 131 156 131 155 279
160 112 4 137 6 243 21 79 11 212 45 293 75 153 55 270 132 388 252 109 111
134 181 69 193 -25 6 -22 9 45 43 40 21 119 68 176 106 229 149 436 419 363
472 -10 7 -26 13 -35 13 -11 0 16 32 72 87 49 48 95 103 103 123 38 95 -58
155 -262 165 -76 3 -127 0 -177 -11z"/>
</g>
</svg>
